<?xml version="1.0" encoding="utf-8"?>
<!DOCTYPE svg PUBLIC "-//W3C//DTD SVG 1.0//EN" "http://www.w3.org/TR/2001/REC-SVG-20010904/DTD/svg10.dtd">
<svg version="1.0" xmlns="http://www.w3.org/2000/svg" width="701px" height="356px" viewBox="0 0 701 356" preserveAspectRatio="xMidYMid meet">
 <g fill="#a694f1">
  <path d="M400 60.5 c0 -3.3 0.2 -3.5 3.5 -3.5 3.3 0 3.5 0.2 3.5 3.5 0 3.3 -0.2 3.5 -3.5 3.5 -3.3 0 -3.5 -0.2 -3.5 -3.5z"/>
  <path d="M412 60.5 c0 -3.3 0.2 -3.5 3.5 -3.5 3.3 0 3.5 0.2 3.5 3.5 0 3.3 -0.2 3.5 -3.5 3.5 -3.3 0 -3.5 -0.2 -3.5 -3.5z"/>
  <path d="M297 55.5 c0 -3.3 0.2 -3.5 3.5 -3.5 3.3 0 3.5 0.2 3.5 3.5 0 3.3 -0.2 3.5 -3.5 3.5 -3.3 0 -3.5 -0.2 -3.5 -3.5z"/>
  <path d="M419 53.1 c0 -1 0.3 -3.9 0.6 -6.5 0.6 -4.4 0.8 -4.6 4 -4.6 3.8 0 3.9 0.3 2.8 8.4 -0.6 4.4 -0.8 4.6 -4 4.6 -2.6 0 -3.4 -0.4 -3.4 -1.9z"/>
  <path d="M432 51.5 c0 -3.3 0.2 -3.5 3.5 -3.5 3.3 0 3.5 0.2 3.5 3.5 0 3.3 -0.2 3.5 -3.5 3.5 -3.3 0 -3.5 -0.2 -3.5 -3.5z"/>
  <path d="M281 48.5 c0 -3.3 0.2 -3.5 3.5 -3.5 3.3 0 3.5 0.2 3.5 3.5 0 3.3 -0.2 3.5 -3.5 3.5 -3.3 0 -3.5 -0.2 -3.5 -3.5z"/>
  <path d="M445 40.5 c0 -3.3 0.2 -3.5 3.5 -3.5 3.3 0 3.5 0.2 3.5 3.5 0 3.3 -0.2 3.5 -3.5 3.5 -3.3 0 -3.5 -0.2 -3.5 -3.5z"/>
  <path d="M474.2 13.4 c-2.9 -1.3 -20.3 -1.4 -126.3 -1.2 l-122.9 0.3 0 -3 c0 -1.6 0.9 -4.5 2 -6.2 l2 -3.3 124.3 0 124.3 0 1.7 2.9 c0.9 1.6 1.7 5 1.7 7.5 0 5.2 -0.9 5.6 -6.8 3z"/>
 </g>
 <g fill="#63c8f2">
  <path d="M365 327.5 c-13.1 -2.8 -41 -11.7 -51.1 -16.4 -21.1 -9.7 -30.7 -9.4 -52.7 1.5 -7.3 3.6 -14.7 7.8 -16.4 9.2 -2 1.7 -3.3 2.2 -3.5 1.5 -0.2 -0.6 -1.7 -2.9 -3.2 -5 -3.8 -5.3 -13.4 -25.3 -16 -33.5 -1.1 -3.7 -2.7 -10.2 -3.4 -14.5 -1.3 -7.1 -1.2 -7.9 0.3 -8.8 0.9 -0.5 5.2 -4.4 9.6 -8.6 12.6 -12.3 21.9 -19.3 27.7 -21.2 13.7 -4.5 36.1 -4.8 48.2 -0.5 10.2 3.6 22.2 10.5 34.8 20.3 13.7 10.5 15.8 11.6 24.4 12.7 4.4 0.6 16.6 0.8 28.2 0.5 22.6 -0.6 28.4 0 37.1 3.9 4.6 2 6.1 3.3 6.9 5.7 2.9 8.2 -0.4 9.9 -26.3 13.7 -7.5 1.1 -17.4 2 -21.9 2 -4.5 0 -13.6 0.7 -20.2 1.5 -6.6 0.8 -14.5 1.5 -17.5 1.5 -6.2 0 -8.6 1.1 -7.7 3.4 0.8 2.1 6.2 2.1 22.2 0.1 6.5 -0.8 16.9 -1.5 23 -1.5 13.8 -0.1 38.6 -2.3 44.4 -4.1 5.5 -1.6 10.1 -7.4 10.1 -12.8 0 -4 0.6 -4.6 21 -21.6 5.2 -4.4 9.9 -8.5 10.3 -9.3 1.7 -2.7 11.9 -6.3 17.1 -6 2.7 0.2 5.1 0.8 5.3 1.4 0.2 0.7 -6.2 7.9 -14.3 16 -8.1 8.2 -17.9 19.2 -21.8 24.4 -8.3 11.1 -13.8 16.8 -18.6 19.2 -8.3 4.1 -27.2 11.8 -34.9 14.2 -4.6 1.5 -12.3 4.7 -17 7.1 -10.2 5.1 -15.2 5.9 -24.1 4z"/>
  <path d="M216.6 229.2 c0.5 -9.3 3.4 -24.8 6.5 -34.7 2.4 -7.7 11.5 -27.2 15.6 -33.1 1.5 -2.3 4.8 -7 7.2 -10.5 6.8 -9.9 24.5 -26.8 35.8 -34.2 11 -7.3 16.5 -10.1 30.3 -15.3 10.5 -3.9 12.2 -5 9.7 -6 -5.2 -2 1.7 -2.4 37.3 -2.4 34.9 0 42.7 0.5 37.8 2.3 -2.5 0.9 0.9 2.9 12.9 7.7 11.3 4.5 19.7 9.1 31.7 17.3 7.2 5 28.3 26.1 30.7 30.8 1 2 2.4 4.3 3.2 5 1.5 1.6 9.7 15.4 9.7 16.5 0 0.3 -2 -2.3 -4.4 -5.9 -11 -16.5 -27.1 -33.6 -37.9 -40.4 -2.2 -1.4 -4.9 -3.4 -6 -4.4 -1.1 -1 -8.1 -4.8 -15.6 -8.5 -10.5 -5.2 -16.8 -7.5 -27.6 -10.3 -13.7 -3.4 -14.5 -3.5 -33.5 -3.5 -19.2 -0.1 -19.7 0 -33.5 3.6 -10.6 2.7 -17.2 5.2 -27.4 10.2 -7.4 3.6 -14.3 7.4 -15.5 8.4 -1.2 1.1 -4.1 3.2 -6.6 4.7 -8.7 5.4 -28.6 26.4 -34.3 36.4 -1.2 2 -3.1 5 -4.3 6.6 -2 2.7 -5.8 10.4 -10.7 21.5 -4.8 11.1 -6.7 17 -7.7 23.8 -0.6 4.2 -1.8 11.1 -2.5 15.2 l-1.4 7.5 0.5 -8.3z"/>
  <path d="M233.5 76.8 c-6.2 -3.4 -7.9 -7.9 -5.5 -14.2 0.9 -2.4 1.5 -2.6 6.7 -2.6 7.9 0 9.2 -0.9 7.4 -5.2 -2.3 -5.4 -2.6 -13.8 -0.6 -17.5 2 -3.6 5.9 -5.6 10.1 -5.1 2.5 0.3 3.2 1.1 5.5 7.2 2.5 6.6 2.7 6.8 3.3 3.9 0.4 -1.6 2 -4.6 3.7 -6.6 3 -3.6 3.2 -3.7 10 -3.7 6.5 0 7.2 0.2 9.8 3.1 l2.8 3 1.7 -2.5 c1.6 -2.5 1.6 -2.6 -0.3 -2.6 -2.2 0 -3.1 -1.9 -3.1 -6.4 0 -3.6 1.5 -5.6 4.2 -5.6 1.1 0 1.8 -0.7 1.8 -2 0 -1.6 0.7 -2 3.5 -2 2.4 0 3.5 0.5 3.5 1.5 0 0.8 0.8 1.5 1.8 1.5 1 0 2.3 0.5 3 1.2 1.6 1.6 1.6 10.8 0 10.8 -1 0 -1 0.2 -0.1 0.8 2.9 1.9 4.5 20.4 2 25.1 -1.9 3.8 -5.8 6.1 -11.3 6.7 -4.3 0.5 -5.2 1 -6.1 3.3 -0.5 1.5 -3.1 4.1 -5.8 5.9 -4.2 2.8 -5.7 3.2 -11.4 3.2 -5.2 0 -7.4 -0.5 -10.6 -2.4 l-3.9 -2.4 -3.5 2.4 c-2.9 1.9 -4.8 2.4 -10.1 2.4 -3.6 0 -7.4 -0.6 -8.5 -1.2z m10.5 -7.8 c1.1 -0.7 0.7 -1 -1.8 -1 -2 0 -3.1 0.4 -2.7 1 0.8 1.3 2.6 1.3 4.5 0z m29 0 c1.1 -0.7 0.5 -1 -2.3 -1 -2.3 0 -3.6 0.4 -3.2 1 0.8 1.3 3.5 1.3 5.5 0z m8 -8.5 c0 -0.8 1.8 -1.6 4.8 -2 2.6 -0.3 5.8 -1.3 7.2 -2 2.3 -1.3 2.1 -1.4 -4.2 -1.5 -6.3 0 -6.8 -0.2 -6.9 -2.2 l-0.2 -2.3 -0.4 2.3 c-0.4 2 -1 2.2 -6.1 2.2 -5.5 0.1 -5.6 0.1 -3.2 1.5 1.4 0.8 3.5 1.4 4.8 1.5 1.7 0 2.2 0.6 2.2 2.6 0 1.4 0.4 2.3 1 1.9 0.6 -0.3 1 -1.2 1 -2z m-29.8 -10.7 c-1 -4.1 -2.9 -7 -3.5 -5.5 -0.3 0.8 0.4 2.8 1.5 4.5 2.4 3.8 2.8 4 2 1z m25.3 -7.8 c-0.3 -0.5 -1.2 -1 -2 -1 -0.8 0 -1.7 0.5 -2 1 -0.4 0.6 0.5 1 2 1 1.5 0 2.4 -0.4 2 -1z"/>
  <path d="M449 76.3 c-4.1 -2.8 -5 -4 -5 -6.7 0 -3 2.3 -2.7 -23.8 -3.2 -21 -0.3 -23.8 -1.2 -25.5 -7.4 l-1 -3.5 -0.9 3.2 c-0.4 1.7 -2 4.1 -3.5 5.3 -2.4 1.9 -3.7 2.1 -10.8 1.6 -15.5 -0.9 -21 -2 -25.3 -4.9 -4 -2.6 -4.2 -3 -4.2 -7.7 0 -9.3 4.1 -15 10.7 -15 2.6 0 3.3 0.4 3.3 2 0 1.6 0.7 2 3.4 2 2.4 0 3.6 0.5 3.9 1.8 0.3 0.9 0.5 -0.9 0.6 -4 0.1 -5.5 0 -5.8 -2.4 -5.8 -1.4 0 -2.5 -0.4 -2.5 -0.9 0 -0.5 -0.9 -1.1 -2 -1.4 -1.5 -0.4 -2 -1.4 -2 -3.6 0 -3.2 -1.6 -4.2 -2.6 -1.6 -0.4 0.9 -1.9 1.5 -4 1.5 -3.3 0 -3.4 -0.1 -3.4 -3.8 0 -6.2 2.4 -7.6 13.7 -8 8.8 -0.4 9.5 -0.3 10 1.7 0.5 2 0.5 2 3.2 0 1.4 -1.1 4.9 -2.2 7.7 -2.5 l5.1 -0.6 0.7 3.2 c0.3 1.8 0.6 5.9 0.6 9.1 l0 5.9 -3.4 0 c-3.1 0 -3.4 -0.2 -4 -4 -0.8 -5.3 -2.6 -4.2 -2.6 1.6 0 4 -0.2 4.4 -2.5 4.4 -1.4 0 -2.5 0.5 -2.5 1 0 0.6 1.5 1 3.4 1 2.4 0 3.6 0.5 3.9 1.8 0.3 0.9 0.5 0.2 0.6 -1.5 0.1 -3.1 0.3 -3.3 3.6 -3.3 l3.5 0 0 4.8 0 4.8 4 -0.4 c3.9 -0.4 4 -0.4 4.1 2.9 0.1 1.9 0.5 4.5 0.9 5.9 0.5 1.7 0.8 -0.3 0.9 -6.2 l0.1 -8.8 3.5 0 3.5 0 0 4.8 0 4.7 2.4 -3 c2 -2.5 3.3 -3 8.7 -3.6 11.7 -1.3 15.1 -2.2 17.5 -4.5 2.9 -3 10.4 -3.5 10.4 -0.8 0 0.9 0.7 2.2 1.5 2.8 1.2 0.8 1.7 3.9 2.2 11.9 0.6 10.1 0.7 10.7 2.8 10.7 3.8 0 4.3 -1.6 2.4 -7.3 -2.2 -6.3 -2.3 -9.7 -0.5 -14.2 1.9 -4.4 5.5 -6.7 10.1 -6.3 3.4 0.3 3.8 0.6 5.7 5.8 4 10.9 4.9 20.5 2.8 27.9 -1.1 3.9 -5.1 8.6 -9.2 10.7 -3.9 2 -14.7 1.8 -17.8 -0.3z m11.5 -7.3 c0.4 -0.6 -0.7 -1 -2.7 -1 -2.5 0 -2.9 0.3 -1.8 1 1.9 1.3 3.7 1.3 4.5 0z m-29.5 -11.7 c2.5 -0.3 6.3 0 8.5 0.6 3 0.8 4.1 0.8 4.7 -0.2 0.5 -0.9 -0.7 -1.3 -4.5 -1.7 -6.2 -0.6 -7.7 -1.4 -7.7 -4.3 -0.1 -1.8 -0.3 -1.6 -1.5 1.1 -1.3 3 -1.7 3.2 -6.5 3.2 -4.5 0 -5 -0.2 -5 -2.2 -0.1 -2.1 -0.2 -2.1 -1.1 -0.5 -0.8 1.3 -2.4 1.7 -7.6 1.7 -5.6 0 -6.4 0.2 -5.3 1.5 1.2 1.4 14.8 2.6 19.5 1.7 1.1 -0.2 4 -0.6 6.5 -0.9z m-47.6 -0.8 c1.8 -1.4 1.5 -1.5 -3.8 -1.5 -5.1 0 -5.7 0.2 -4.6 1.5 1.6 1.9 5.9 1.9 8.4 0z m-12.5 -2.1 c0.9 -0.8 -0.6 -1.1 -6.9 -1.7 l-6.5 -0.5 3.5 1.8 c3 1.6 8.2 1.8 9.9 0.4z m96 -7.2 c-0.6 -1.8 -1.5 -3.2 -2 -3.2 -1.2 0 -1.1 0.6 0.7 4.1 1.9 3.9 2.8 3.3 1.3 -0.9z m-22.8 -3.5 c-1.6 -1.6 -2 -0.5 -0.8 2.3 0.9 2.2 1.1 2.3 1.4 0.6 0.3 -1 0 -2.3 -0.6 -2.9z m-70.3 -19.4 c-1 -0.2 -2.6 -0.2 -3.5 0 -1 0.3 -0.2 0.5 1.7 0.5 1.9 0 2.7 -0.2 1.8 -0.5z"/>
 </g>
 <g fill="#9b96ea">
  <path d="M387 49.5 c0 -1.9 0.5 -3.5 1 -3.5 0.6 0 1 1.6 1 3.5 0 1.9 -0.4 3.5 -1 3.5 -0.5 0 -1 -1.6 -1 -3.5z"/>
  <path d="M390.9 51.8 c0 -0.7 -0.2 -2.3 -0.3 -3.5 -0.2 -1.7 0.3 -2.3 1.6 -2.3 1.4 0 1.8 0.8 1.8 3.5 0 2.4 -0.5 3.5 -1.5 3.5 -0.8 0 -1.5 -0.6 -1.6 -1.2z"/>
  <path d="M433 46.5 c0 -2.9 0.4 -3.5 2 -3.5 1.2 0 2 0.6 1.8 1.3 -0.1 0.6 0.3 2.2 1 3.5 1.2 2.1 1.1 2.2 -1.8 2.2 -2.8 0 -3 -0.3 -3 -3.5z"/>
  <path d="M260 45.5 c0 -3 0.3 -3.5 2.4 -3.5 2.3 0 2.4 0.2 1.3 3.5 -0.6 1.9 -1.6 3.5 -2.4 3.5 -0.8 0 -1.3 -1.3 -1.3 -3.5z"/>
  <path d="M264 47.8 c0.1 -0.7 0.7 -2.4 1.5 -3.8 l1.4 -2.5 0.1 3.8 c0 2.6 -0.4 3.7 -1.5 3.7 -0.8 0 -1.5 -0.6 -1.5 -1.2z"/>
  <path d="M456 44.5 c0 -4.2 0.2 -4.5 2.6 -4.5 1.6 0 2.3 0.4 1.8 1.2 -0.4 0.6 -0.7 2.6 -0.6 4.5 0.1 2.7 -0.2 3.3 -1.8 3.3 -1.7 0 -2 -0.7 -2 -4.5z"/>
  <path d="M461 45.1 c0 -2.2 0.5 -4.3 1 -4.6 0.6 -0.4 1 1.2 1 3.9 0 2.5 -0.4 4.6 -1 4.6 -0.5 0 -1 -1.8 -1 -3.9z"/>
  <path d="M378 44.5 c0 -3.3 0.2 -3.5 3.5 -3.5 3.3 0 3.5 0.2 3.5 3.5 0 1.9 -0.4 3.5 -1 3.5 -0.5 0 -1 -1.1 -1 -2.4 0 -1.4 -0.4 -2.8 -1 -3.1 -0.6 -0.4 -0.7 0.6 -0.4 2.5 0.6 2.6 0.4 3 -1.5 3 -1.7 0 -2.1 -0.6 -2.1 -3.5z"/>
  <path d="M355.7 44.3 c-0.4 -0.3 -0.7 -1.9 -0.7 -3.5 0 -2.5 0.3 -2.8 3.5 -2.8 3.3 0 3.5 0.2 3.5 3.5 0 3.2 -0.3 3.5 -2.8 3.5 -1.6 0 -3.2 -0.3 -3.5 -0.7z"/>
  <path d="M466 40 c0 -1.6 0.5 -3 1 -3 0.6 0 1 0.6 1 1.4 0 0.8 0.3 2.1 0.6 3 0.4 1.1 0.1 1.6 -1 1.6 -1.1 0 -1.6 -0.9 -1.6 -3z"/>
  <path d="M470 41.1 c-1.6 -3.1 -1.2 -5.1 1 -5.1 1.6 0 2 0.7 2 3.5 0 3.9 -1.4 4.6 -3 1.6z"/>
  <path d="M289 37.5 c0 -3.2 0.2 -3.5 3 -3.5 1.7 0 3 0.3 3 0.8 -0.1 0.9 -4.7 6.2 -5.5 6.2 -0.3 0 -0.5 -1.6 -0.5 -3.5z"/>
  <path d="M293 39 c0.6 -1.1 1.5 -2 2 -2 0.6 0 1 0.9 1 2 0 1.3 -0.7 2 -2 2 -1.8 0 -1.9 -0.3 -1 -2z"/>
  <path d="M244 36.3 c0 -3.1 0.2 -3.3 3.5 -3.3 4.1 0 4.6 1.6 1 3.2 -1.4 0.6 -2.5 1.6 -2.5 2.2 0 0.6 0.5 0.5 1.2 -0.2 1.7 -1.7 3.8 -1.5 3.8 0.3 0 1.2 -0.9 1.5 -3.5 1.3 -3.2 -0.2 -3.5 -0.4 -3.5 -3.5z"/>
  <path d="M271 38.1 c0 -0.5 0.6 -1.2 1.3 -1.4 1 -0.4 1 -0.6 0 -0.6 -0.7 -0.1 -1.3 -1 -1.3 -2.1 0 -1.6 0.7 -2 3.5 -2 2.8 0 3.5 0.4 3.5 2 0 1.4 -0.7 2 -2.2 2.1 l-2.3 0 2.3 0.9 c3.2 1.3 2.7 2 -1.3 2 -1.9 0 -3.5 -0.4 -3.5 -0.9z"/>
  <path d="M350.8 22.8 c-0.4 -1 -14.7 -1.2 -63.1 -1 l-62.7 0.3 0 -6.5 0 -6.5 124.5 -0.1 c107.2 0 125 0.2 128 1.4 3.4 1.5 3.5 1.6 3.5 7.2 l0 5.7 -3.1 -0.7 c-6.7 -1.3 -73.6 -0.4 -77.4 1 -1 0.4 -3.8 0.3 -6.3 -0.2 -3.7 -0.7 -4.8 -1.4 -5.3 -3.4 -0.4 -1.4 -0.7 -1.8 -0.8 -0.9 -0.2 3.1 -9.8 4.3 -18.8 2.4 -2.1 -0.5 -3 -1.1 -2.6 -1.9 0.4 -0.6 -0.1 -0.5 -1 0.3 -1.4 1.1 -2 1.1 -3.4 0 -1.6 -1.2 -1.7 -1.2 -0.5 0.2 1 1.4 1 1.7 -0.5 2.2 -1 0.2 -2.7 0.8 -3.8 1.3 -2 0.7 -2 0.7 0 -1.7 l2 -2.4 -2.6 2.3 c-2.8 2.4 -5.5 2.9 -6.1 1z"/>
 </g>
 <g fill="#8f98e1">
  <path d="M393 45 c0 -1.1 -0.6 -2 -1.4 -2 -0.9 0 -1.6 -1.3 -1.9 -3.2 l-0.4 -3.3 -0.1 3.3 c-0.1 1.7 -0.6 3.2 -1.1 3.2 -1.5 0 -2.1 -5.9 -1.5 -13.1 0.7 -7.1 0.3 -8 -3.1 -5.6 -1.4 1.1 -1.6 2 -1 4.3 0.4 1.6 0.9 5.4 1.2 8.5 l0.5 5.6 -3.5 0.1 -3.5 0.1 -1.3 -6.5 c-0.9 -4.5 -1.9 -6.9 -3.2 -7.6 -1.5 -0.8 -1.8 -0.7 -1.2 0.3 0.6 0.9 0.3 1.1 -0.8 0.6 -1 -0.3 -1.7 -0.2 -1.7 0.3 0 0.6 1.1 1 2.5 1 1.4 0 2.5 0.5 2.5 1 0 0.6 -0.4 1 -1 1 -1.2 0 -6 4.8 -6 6 0 0.6 -1.6 1 -3.5 1 -3 0 -3.5 -0.3 -3.5 -2.4 0 -1.7 -0.7 -2.6 -2.4 -3 -1.4 -0.3 -3.1 -1.3 -4 -2.1 -1.2 -1.3 -5.3 -1.5 -24.1 -1.6 -24.5 0 -25.5 0.2 -25.5 5.2 0 1.9 -0.5 2.9 -1.5 2.9 -0.8 0 -1.5 -0.6 -1.5 -1.2 0 -1 -0.2 -1 -0.8 -0.1 -1 1.6 -7.2 2.9 -7.2 1.5 0 -0.5 1.2 -1.7 2.6 -2.7 1.4 -0.9 2.3 -1.9 2 -2.2 -0.3 -0.4 0 -1.3 0.7 -2.1 1.1 -1.3 0.9 -1.4 -1 -0.1 -1.3 0.8 -2.3 1.8 -2.3 2.4 0 0.5 -1.2 2.1 -2.5 3.4 -1.8 1.7 -2.5 1.9 -2.5 0.8 0 -0.8 -1.7 -2.8 -3.7 -4.3 l-3.8 -2.9 -28.8 0 -28.7 0 0 -6.5 0 -6.5 64.2 0 c50.2 0 64.2 0.3 64.5 1.2 0.4 1 1 1 2.5 0.2 3.9 -2.1 13.9 -2.9 17.5 -1.4 2.9 1.2 4.2 1.2 9.8 -0.2 5.9 -1.4 6.5 -1.4 8.1 0.1 1.1 1.2 2.5 1.5 4.1 1.1 1.8 -0.4 2.3 -0.2 1.7 0.6 -0.4 0.8 -0.3 0.9 0.5 0.5 0.6 -0.4 0.9 -1.1 0.6 -1.6 -0.3 -0.4 0.2 -1 1 -1.4 0.8 -0.3 1.5 -0.1 1.5 0.5 0 0.6 0.7 0.6 2 -0.1 1.5 -0.8 2.2 -0.8 2.5 0.2 0.4 0.9 2.2 1.2 5.8 1 12 -0.6 67.5 -0.4 68.6 0.2 0.6 0.4 1.1 3.5 1.1 7.3 l0 6.5 -3.2 -0.7 c-7.5 -1.5 -18.9 -2 -42.6 -1.7 l-25.2 0.4 0 4.4 c0 4.4 0 4.4 -3.5 4.4 -2.9 0 -3.6 -0.4 -4.1 -2.6 -0.4 -1.4 -0.4 -4.9 -0.1 -7.8 0.6 -6.5 -0.2 -8.3 -2.6 -5.6 -1.8 2.2 -2.3 8 -0.7 8 0.6 0 1 3.1 1 7.3 l0 7.4 -3.5 0.1 c-2.9 0.1 -3.5 -0.2 -3.5 -1.8z m-97.3 -17.7 c-0.3 -0.3 -1.1 -0.2 -1.7 0.2 -0.9 0.6 -0.9 1 0.1 1.6 1.4 0.8 2.7 -0.7 1.6 -1.8z m5.3 0.8 c0 -1 -0.7 -2.4 -1.5 -3.1 -0.9 -0.8 -1.5 -0.9 -1.5 -0.2 0 0.6 0.5 1.4 1.1 1.7 0.6 0.4 0.8 1.3 0.5 2.1 -0.3 0.8 -0.1 1.4 0.4 1.4 0.6 0 1 -0.8 1 -1.9z m69 -3.9 c0 -0.9 -1.3 -1.2 -4.7 -1 -6.3 0.4 -6.6 2.3 -0.3 2.3 3.5 0 5 -0.4 5 -1.3z m19.3 -2.4 c-0.7 -4.6 -1.3 -4.8 -1.3 -0.5 0 2.1 0.4 3.7 0.9 3.7 0.5 0 0.7 -1.5 0.4 -3.2z m-23.2 -1.5 c1.3 -1.6 1.2 -1.7 -0.3 -0.4 -1.5 1.1 -2.1 1.1 -3.5 0 -1.6 -1.3 -1.7 -1.2 -0.4 0.4 0.7 0.9 1.7 1.7 2.1 1.7 0.4 0 1.4 -0.8 2.1 -1.7z"/>
  <path d="M444 38.1 c0 -0.5 0.6 -1.2 1.3 -1.4 1 -0.4 1 -0.6 0 -0.6 -0.7 -0.1 -1.3 -1 -1.3 -2.1 0 -1.6 0.7 -2 3.5 -2 3.3 0 3.5 0.2 3.5 3.5 0 3.3 -0.2 3.5 -3.5 3.5 -1.9 0 -3.5 -0.4 -3.5 -0.9z"/>
 </g>
 <g fill="#819bd8">
  <path d="M387.3 60.2 c0.9 -0.9 2 -2.9 2.6 -4.2 0.9 -2.3 1 -2.1 1 1.8 0.1 3.9 -0.1 4.2 -2.6 4.2 -2.4 0 -2.5 -0.1 -1 -1.8z"/>
  <path d="M384 57.5 c0 -3 0.3 -3.5 2.4 -3.5 1.9 0 2.2 0.4 1.9 2.3 -0.3 1.3 -1.3 2.9 -2.4 3.5 -1.7 1.1 -1.9 0.9 -1.9 -2.3z"/>
  <path d="M423.9 53.1 c2.5 -0.7 6.2 -7.1 4.1 -7.1 -0.5 0 -1.2 1.1 -1.6 2.5 -0.4 1.6 -1.3 2.5 -2.6 2.5 -1.6 0 -1.9 -0.5 -1.6 -2.5 0.5 -2.1 0.2 -2.5 -2.1 -2.5 -2.4 -0.1 -2.4 -0.1 -0.7 -1.2 1.6 -0.9 2.3 -0.7 3.8 1.2 1.8 2.2 1.8 2.2 1.8 0.1 0 -2.8 -4.2 -3.8 -7.5 -1.7 -1.3 0.9 -3.8 1.6 -5.5 1.6 -2.6 0 -3 0.4 -3 2.7 0 4.6 -1.9 1.2 -2.3 -4.2 l-0.3 -5 -0.2 5.8 c-0.2 5 -0.5 5.7 -2.2 5.7 -1.8 0 -2 -0.7 -2 -5.3 0 -7.3 -1.2 -20.8 -1.8 -20.3 -0.2 0.3 -0.4 5.5 -0.3 11.6 0.1 6.6 -0.2 11 -0.8 11 -0.5 0 -1.2 -0.6 -1.4 -1.2 -0.4 -1 -0.6 -1 -0.6 0 -0.1 0.6 -0.8 1.2 -1.6 1.2 -0.8 0 -1.5 0.5 -1.5 1 0 2.4 -2.9 0.7 -3.5 -2 -0.6 -2.7 -0.4 -5.4 1.2 -17 l0.6 -4.5 1.4 4 1.3 4 -0.5 -4.8 c-0.4 -4.2 -0.2 -5 2.1 -7 2.6 -2.3 8.1 -4 8.9 -2.7 0.2 0.4 0.3 4.1 0.1 8.2 -0.2 4.1 0 8.1 0.5 8.9 0.6 0.9 0.9 -0.2 0.9 -3.3 l0 -4.8 11.3 -0.1 c6.1 0 21.3 -0.1 33.7 -0.2 17 -0.1 23.3 0.2 25.8 1.2 l3.2 1.3 0 7.9 0 7.9 -2.9 0 c-1.6 0 -3.2 0.6 -3.5 1.3 -0.3 0.9 -0.9 0.7 -1.9 -0.5 -1.7 -2.2 -2.8 -2.3 -2.1 -0.3 0.4 1 0 1.5 -1.5 1.5 -1.7 0 -2.1 -0.6 -2.1 -2.9 0 -4 -1.7 -4.8 -3.2 -1.7 -1.4 3.3 -2.8 3.3 -2.8 0.1 0 -2.5 3.4 -6.5 5.7 -6.5 0.7 0 1.3 0.8 1.3 1.8 0 1 0.7 2.7 1.6 3.8 1.4 1.8 1.5 1.8 0.8 -0.6 -1.3 -4.7 -2.3 -7 -3.2 -7 -2 0 -6.2 4.3 -7.3 7.4 -0.9 2.5 -2 3.6 -4.1 4 -2 0.4 -2.8 1.2 -2.8 2.6 0 2.5 -2.7 2.7 -3.3 0.3 -0.4 -1.7 -0.5 -1.7 -0.6 0 0 0.9 -0.8 1.7 -1.6 1.7 -1.1 0 -1.5 -1.1 -1.5 -3.9 0 -3.8 -1.9 -6.8 -2.8 -4.3 -0.2 0.7 -1.1 2 -2 2.9 -1.6 1.6 -1.7 1.5 -2 -0.6 -0.5 -2.9 -4.7 -5 -6.5 -3.1 -0.8 0.9 -0.8 1.1 0 0.6 1.8 -1 4.5 0.5 3.8 2.2 -0.3 0.8 -0.1 1.9 0.6 2.2 0.6 0.4 -1 1.1 -3.5 1.4 -4 0.6 -4.6 1 -4.6 3.2 0 2.1 -0.4 2.4 -3.7 2.3 -3.2 -0.1 -3.4 -0.2 -1.4 -0.8z m25.1 -10.1 c0 -1.6 -0.4 -3 -0.8 -3 -0.5 0 -0.7 1.4 -0.4 3 0.2 1.7 0.6 3 0.8 3 0.2 0 0.4 -1.3 0.4 -3z m-4 -6 c0.8 -0.5 1 -1 0.4 -1 -0.7 0 -2.2 0.9 -3.5 2.1 -1.9 1.6 -2 1.8 -0.4 1 1.1 -0.6 2.7 -1.5 3.5 -2.1z"/>
  <path d="M240.2 49.1 c-1.2 -2.8 -1.3 -2.8 -8.2 -2.3 l-7 0.5 0 -9.5 0 -9.4 3.8 -0.1 c47.3 -0.7 56.4 -0.3 59.4 2.3 1 1 1.8 1.2 1.8 0.6 0 -0.6 -0.4 -1.2 -1 -1.4 -1.4 -0.4 4.2 -8.4 5.9 -8.3 1.6 0 4.8 5.1 4.8 7.7 0 0.9 -1.1 2.2 -2.4 2.9 -1.2 0.7 -2.3 1.8 -2.3 2.6 0 0.7 -0.4 1.3 -1 1.3 -0.5 0 -1.6 1.3 -2.5 3 -1.4 2.7 -1.4 3.3 0 6.7 1.7 4 1 5.3 -3.1 5.3 -2.2 0 -3.4 -1.7 -3.4 -4.8 0 -2.7 -5 -9 -8.1 -10.1 -1.6 -0.5 -2.9 -0.6 -2.9 -0.2 0 0.5 1.1 1.1 2.4 1.5 2.2 0.5 8.4 8.1 7.4 9.1 -0.3 0.3 -1.6 -0.4 -3.1 -1.5 -1.4 -1.1 -3 -2 -3.5 -2 -0.5 0 -1.2 -0.9 -1.5 -2.1 -0.8 -2.9 -2.6 -2 -6.2 2.9 -2.6 3.5 -5.5 5.5 -5.5 3.7 0 -1.7 3.3 -6.6 6 -8.9 2 -1.6 2.6 -2.6 1.6 -2.6 -1.8 0 -7.5 6.7 -8.2 9.8 -0.7 2.4 -2.9 3 -3.7 1 -0.3 -0.8 -0.6 -0.6 -0.6 0.5 -0.1 2.6 -2.8 2.1 -3.5 -0.7 -0.3 -1.3 -1.5 -4.4 -2.5 -6.9 -1.6 -3.7 -2.3 -4.5 -4 -4 -2.4 0.6 -6.5 6.7 -5.8 8.6 0.4 0.7 0.6 0.6 0.6 -0.4 0.1 -2.2 3.9 -6.9 5.7 -6.9 0.7 0 1.7 1.2 2 2.8 0.4 1.5 1 3.2 1.4 3.7 0.4 0.6 1 2 1.3 3.3 0.9 4 -1.9 2.4 -3.3 -1.8 -1.7 -5.1 -3.5 -3.8 -3.1 2.3 0.2 4.3 0.2 4.4 -3.1 4.5 -2.8 0.1 -3.6 -0.4 -4.6 -2.7z"/>
  <path d="M376.8 50.3 c-0.9 -0.2 -1.9 -1.4 -2.1 -2.6 -0.4 -2.1 -0.4 -2.1 -0.6 0.1 0 1.4 -0.6 2.2 -1.3 1.9 -0.9 -0.3 -1.3 -2.5 -1.2 -6.9 0 -5.1 -0.3 -6.5 -1.3 -6.1 -0.7 0.3 -1.3 0.9 -1.3 1.4 0 1.2 -5.3 5.9 -6.6 5.9 -0.6 0 -1.7 0.7 -2.4 1.5 -0.7 0.8 -1.9 1.5 -2.6 1.5 -2.2 0 -1.6 -2.6 0.9 -4.3 1.2 -0.9 1.7 -1.6 1 -1.6 -0.6 -0.1 -2.2 1.1 -3.5 2.7 l-2.3 2.7 -23.7 0 c-13.1 0 -23.8 0.3 -23.8 0.8 0 0.4 -0.6 0.7 -1.4 0.7 -1 0 -1.9 -1.9 -2.6 -5.5 -0.6 -3 -1.4 -5.5 -1.7 -5.5 -0.6 0 0.3 6.9 1.3 9.4 0.4 1 0.1 1.6 -0.9 1.6 -0.9 0 -1.7 -1.4 -2.1 -3.9 -0.8 -5 -2.2 -6 -3.8 -2.7 -1.4 3.1 -2.8 3.4 -2.8 0.6 0 -1.2 1.2 -3.2 2.7 -4.6 1.6 -1.4 2.9 -3 2.9 -3.5 0.3 -2.3 0.6 -2.2 2 0.1 l1.5 2.5 -0.5 -2.4 c-0.3 -1.4 0.2 -3.3 1.2 -4.5 1.6 -2 2.5 -2.1 25.7 -2 15.1 0.1 24.2 -0.3 24.6 -0.9 0.4 -0.6 1.8 0.1 3.4 1.7 1.5 1.5 3 2.4 3.3 2.1 0.4 -0.4 -0.1 -1.1 -1 -1.6 -1 -0.6 -2.3 -1.9 -2.9 -3.1 -0.6 -1.1 -0.7 -1.8 -0.2 -1.5 0.5 0.3 1.8 -0.7 2.8 -2.3 1.5 -2.2 2.6 -2.8 4.4 -2.5 1.3 0.2 2.6 0.7 3 1.1 0.3 0.4 -0.3 0.4 -1.4 0 -1.6 -0.6 -1.7 -0.5 -0.8 0.5 1 1 1.8 0.8 3.8 -1.1 l2.6 -2.4 2.5 2.5 c2.2 2.3 2.4 3 1.6 6 -0.6 2.2 -1.4 3.4 -2.5 3.3 -1 -0.1 -1.7 0.2 -1.7 0.7 0 0.5 1.1 0.9 2.5 0.9 2.2 0 2.4 0.4 2.8 5.8 l0.3 5.7 0.2 -6.2 c0.2 -4.9 0.5 -6.3 1.7 -6.3 0.8 0 1.5 0.5 1.5 1 0 0.6 0.5 1 1 1 0.6 0 1 -1.1 1 -2.5 0 -1.4 -0.3 -2.5 -0.7 -2.5 -1.4 0 -0.9 -5 0.5 -5.5 0.8 -0.3 1 0 0.6 0.6 -0.4 0.7 1.1 0 3.2 -1.5 l3.9 -2.6 0.3 3.5 c0.2 1.9 0.7 3.5 1.3 3.5 0.5 0 0.7 2.9 0.5 6.7 -0.2 3.8 -0.4 9.4 -0.5 12.6 -0.1 6.8 -2.1 7.7 -2.2 1 -0.2 -9 -1.7 -10.4 -1.8 -1.8 -0.1 5.6 -0.4 7.5 -1.1 6.5 -0.5 -0.8 -1 -2.7 -1 -4.2 0 -1.5 -0.4 -2.9 -0.9 -3.3 -0.6 -0.3 -0.9 1.2 -0.8 3.7 0.2 4.4 -0.7 5.2 -4.5 4.1z m4.2 -12.9 c-0.5 -1.9 -1.1 -3.9 -1.5 -4.2 -0.7 -0.7 0.3 5.6 1.2 7.1 0.9 1.6 1.1 0.5 0.3 -2.9z m-14 -8.3 l-1.1 -2.2 -2.8 2.3 c-1.6 1.3 -2.7 2.5 -2.5 2.7 0.2 0.3 1.5 -0.6 2.8 -1.8 2.1 -2 2.4 -2 3 -0.5 0.3 0.9 0.1 2.4 -0.6 3.3 -1.1 1.5 -1 1.5 0.6 0 1.5 -1.4 1.6 -2.1 0.6 -3.8z m18 -1.3 l-0.1 -5.3 -1.6 3 c-1.1 2 -1.2 3 -0.4 3.3 0.6 0.2 1.1 1.2 1.1 2.3 0 1 0.2 1.9 0.5 1.9 0.3 0 0.5 -2.4 0.5 -5.2z"/>
 </g>
 <g fill="#6c9fca">
  <path d="M450.3 75.3 c-1.5 -0.5 -1.8 -3.3 -0.4 -3.3 0.6 0 1.3 0.4 1.6 1 0.3 0.5 2 1.4 3.8 1.9 l3.2 0.9 -3.5 0 c-1.9 0 -4.1 -0.2 -4.7 -0.5z"/>
  <path d="M462.5 74.1 c4.4 -2 5 -1.9 4.2 0.4 -0.4 1 -1.9 1.5 -4.4 1.5 l-3.8 -0.1 4 -1.8z"/>
  <path d="M276.1 73.7 c0.2 -0.1 1.4 -1.1 2.7 -2.1 2.2 -1.9 2.2 -1.9 2.2 0.2 0 1.7 -0.6 2.2 -2.7 2.2 -1.4 0 -2.4 -0.1 -2.2 -0.3z"/>
  <path d="M452.8 71.8 c-3.7 -2.1 -4.9 -3.8 -2.8 -3.8 0.6 0 1 -0.7 1 -1.5 0 -1.1 1.2 -1.5 4.7 -1.5 3.7 0 5.3 -0.6 7.5 -2.7 3.4 -3.3 3.4 -4.6 0.3 -9.8 -3.2 -5.1 -3.3 -10.7 -0.3 -13.5 1.2 -1.1 2.7 -2 3.3 -2 1.2 0 6.6 16.3 6.5 20 0 1.4 -0.9 4.5 -2 6.9 -2.4 5.1 -2 6.5 0.6 2.5 2 -3 2.5 -11.7 1.1 -19.4 l-0.9 -4.5 4.6 0 4.6 0 0 9.3 c0 9 0 9.2 -2.4 9.2 -1.9 0 -2.7 0.9 -4.1 4.6 -1.6 4.1 -2 4.5 -4.3 4.1 -1.6 -0.3 -3.7 0.2 -5.2 1.2 -4.6 3.2 -5.8 3.3 -6.3 0.3 l-0.4 -2.7 -0.2 2.8 c-0.1 3.2 -0.5 3.3 -5.3 0.5z"/>
  <path d="M274 71.1 c0 -1.8 -0.6 -2.1 -4 -2.1 -3.3 0 -4 -0.3 -4 -2 0 -1.5 0.7 -2 2.5 -2 2.8 0 7.5 -2 7.5 -3.2 0 -0.4 -1.1 -0.8 -2.4 -0.8 -1.2 0 -3.8 -1 -5.7 -2.3 -2.9 -1.9 -3.4 -2.9 -3.7 -6.6 -0.4 -5.6 1.2 -9.3 5.4 -13.1 2.9 -2.5 3.8 -2.8 5.9 -2 3.8 1.4 7.3 5.9 8.6 10.8 1.1 4.2 1.1 4.2 5.9 4.2 2.5 0 4.9 -0.3 5.3 -0.6 0.3 -0.4 -0.3 -2.4 -1.3 -4.5 -1.1 -2.1 -2 -4.5 -2 -5.4 0 -2.1 4.8 -6.5 6.4 -5.9 0.7 0.3 1.8 3.8 2.5 7.9 1.1 5.9 1.1 8.1 0.2 10.4 -1.6 3.8 -4.9 6.5 -8.3 6.9 -2.3 0.3 -2.8 -0.1 -2.8 -1.7 0 -1.2 0.6 -2.2 1.3 -2.2 0.6 -0.1 -1 -0.5 -3.8 -0.9 -2.7 -0.4 -7.2 -0.4 -10 0 l-5 0.7 4.3 0.8 c2.3 0.4 4.2 1.1 4.2 1.6 0 0.5 1.4 0.9 3 0.9 1.7 0 3 0.5 3 1 0 0.6 -0.7 1 -1.5 1 -0.8 0 -1.5 0.5 -1.5 1.1 0 1.9 -3.7 6.3 -6.9 8.2 -3 1.8 -3.1 1.8 -3.1 -0.2z m3.4 -20.3 c-1.5 -2.7 -3.8 -4.8 -5.1 -4.8 -1.9 0 -2.7 2.8 -1.3 4.5 1.6 1.9 7.5 2.1 6.4 0.3z"/>
  <path d="M271.5 49 c-0.3 -0.5 0.1 -1 0.9 -1 0.8 0 1.8 0.5 2.1 1 0.3 0.6 -0.1 1 -0.9 1 -0.8 0 -1.8 -0.4 -2.1 -1z"/>
  <path d="M234 67.1 c0 -1.6 0.9 -2 5.5 -2.3 5.1 -0.3 5.5 -0.2 5.5 2 0 2 -0.5 2.2 -5.5 2.2 -4.7 0 -5.5 -0.3 -5.5 -1.9z"/>
  <path d="M250 66 c0 -2 -0.5 -3 -1.5 -3 -1.4 0 -1.3 -0.3 0.1 -2.5 1.5 -2.3 1.5 -2.7 -0.6 -6 -1.2 -1.9 -2.3 -3.5 -2.6 -3.5 -0.5 0 0.8 3.3 1.9 4.8 1.6 2 -1.2 6.1 -4.7 7 -1.6 0.4 -4.4 0.6 -6 0.3 -3 -0.5 -3 -0.5 -0.6 -1 1.5 -0.3 0 -0.8 -4 -1.1 l-6.5 -0.5 0 -8.3 0 -8.3 7.4 -0.5 c4.1 -0.3 7.8 -0.7 8.2 -1 0.5 -0.3 0.9 0.1 0.9 0.8 0.1 0.7 0.7 2.7 1.5 4.3 l1.4 3 -0.5 -4 c-0.5 -3.1 -0.1 -4.6 1.6 -6.8 2.6 -3.3 4.6 -3.5 5.5 -0.4 0.3 1.2 1 3.1 1.5 4.2 3.5 8.3 3.9 15 1 21.3 -2.2 4.9 -4 5.5 -4 1.2z"/>
  <path d="M255.4 66.1 c2.5 -4.8 2.9 -10.2 1.2 -16.8 -0.9 -3.3 -1.6 -6.3 -1.6 -6.5 0 -0.2 1.9 -0.3 4.3 -0.3 l4.3 0 -1 5.8 c-0.8 5.1 -0.7 6.1 1.1 8.5 1.1 1.5 3.5 3.5 5.4 4.4 l3.4 1.7 -3 0 c-1.6 0.1 -3.6 -0.3 -4.3 -0.8 -2.2 -1.4 -8.2 2 -8.2 4.6 0 1.4 -0.6 2.3 -1.5 2.3 -1.4 0 -1.4 -0.3 -0.1 -2.9z"/>
  <path d="M284.4 66.4 c0.3 -0.9 0.6 -2 0.6 -2.5 0 -0.5 0.5 -0.9 1 -0.9 0.6 0 1 1.1 1 2.5 0 1.6 -0.6 2.5 -1.6 2.5 -1.1 0 -1.4 -0.5 -1 -1.6z"/>
  <path d="M401.5 63.4 c-2.2 -0.8 -6.5 -1.5 -9.7 -1.6 l-5.6 -0.1 2 -2.7 c1.2 -1.7 2.2 -5.1 2.6 -9.6 0.6 -6.1 1 -6.9 2.9 -7.2 1.4 -0.2 2.3 0.3 2.6 1.5 0.3 1 0.5 -0.1 0.6 -2.4 0.1 -3.6 0.4 -4.3 2.1 -4.3 1.7 0 2 0.7 2 5.1 0 4.4 0.2 4.8 1.4 3.6 0.8 -0.8 1.6 -2.7 1.9 -4.3 0.4 -2.6 0.4 -2.5 0.6 0.7 0 2 0.4 5.1 0.7 6.8 0.6 2.8 1 3.1 4.4 3.1 3.3 0 4.1 -0.5 5.9 -3.4 2.8 -4.5 5.1 -5.3 7.3 -2.6 1.8 2.2 1.8 2.2 1.8 0.2 0 -1.3 -1 -2.4 -2.7 -3.1 l-2.8 -1.1 3 0.6 c1.7 0.3 3.4 0.9 3.9 1.4 1.4 1.4 -0.3 6.2 -2.4 6.7 -2.6 0.7 -2.6 2.3 0 2.3 1.5 0 2.7 -1.4 4.3 -4.9 2.1 -4.8 4.4 -6.5 7.2 -5.4 0.8 0.2 1.1 1.1 0.8 1.9 -0.3 0.7 0.2 2.1 1.1 2.9 2.2 2.3 2 3.8 -0.4 3 -1.1 -0.3 -2 -0.2 -2 0.4 0 1 5.8 2.6 6.6 1.8 0.2 -0.2 -0.2 -1.7 -1.1 -3.3 -2.4 -4.7 -1.9 -8 1.6 -10.5 3.2 -2.3 5 -1.7 5.6 1.8 1.3 7.2 1.4 14.4 0.3 17.8 l-1.2 3.8 -5.7 -0.8 c-3.1 -0.4 -7.3 -0.8 -9.3 -0.7 -3.4 0 -3.8 -0.3 -3.8 -2.4 0 -1.9 -0.5 -2.4 -2.5 -2.4 -1.4 0 -2.5 -0.4 -2.5 -0.9 0 -0.5 -1.1 -1.1 -2.5 -1.3 -1.4 -0.3 -2.5 -0.1 -2.5 0.4 0 0.6 -1.9 0.9 -4.2 0.8 -2.4 -0.2 -5.9 -0.2 -7.8 -0.1 -6.8 0.4 0.9 2.4 8.3 2.2 6.6 -0.2 6.7 -0.2 6.7 2.3 0 2.8 -0.3 2.9 -3.5 1.7 -1.1 -0.5 -3.3 -0.4 -4.9 0 -3.7 1.1 -9.7 -0.4 -11.9 -2.9 -0.9 -1 -2.1 -4.3 -2.6 -7.3 -0.7 -4.6 -0.9 -4.9 -1 -1.8 -0.3 10.4 3.3 14.1 13.4 13.8 9.1 -0.3 11.9 0.2 6.5 1.2 -6.8 1.2 -11.1 1 -15.5 -0.7z m31.5 -8.6 c0 -1.7 -2 -4.7 -2 -3.1 0 0.6 -0.3 1.8 -0.6 2.7 -0.4 1.1 -0.1 1.6 1 1.6 0.9 0 1.6 -0.6 1.6 -1.2z"/>
  <path d="M433.1 63.9 c-5.7 -1.7 -2.5 -2.2 5.3 -0.9 4.1 0.7 7.9 1 8.5 0.6 1.6 -1 3.1 -7.5 3.1 -13.8 0 -6 -0.2 -5.8 6.1 -7.2 2.4 -0.5 2.7 -0.2 3.3 2.8 0.4 1.8 1.7 5.5 3 8 l2.4 4.7 -2.2 2.6 c-2 2.3 -2.9 2.6 -8.4 2.4 -3.6 -0.1 -6.2 0.3 -6.2 0.9 0 1.3 -10.3 1.2 -14.9 -0.1z"/>
  <path d="M290 63.5 c0 -0.2 1.7 -0.9 3.8 -1.5 6.1 -1.6 8.5 -5 9 -12.3 l0.4 -6.2 25.9 -0.3 c14.2 -0.1 25.9 0 25.9 0.2 0 0.2 -0.7 2 -1.5 3.9 -0.8 2 -1.5 4.5 -1.5 5.7 0 2.3 6.3 6.9 11.2 8 l3.3 0.8 -4.2 0.1 c-2.3 0.1 -4.3 -0.4 -4.5 -1 -0.2 -0.6 -2.4 -1.1 -4.8 -1 -2.5 0 -13.6 0.2 -24.7 0.3 -11.1 0.2 -20.5 0.6 -20.9 1.1 -0.4 0.4 -2.5 0.7 -4.6 0.7 -2.1 0 -3.8 0.5 -3.8 1 0 0.6 -2 1 -4.5 1 -2.5 0 -4.5 -0.2 -4.5 -0.5z"/>
  <path d="M372 59.5 c-0.7 -0.9 -1.9 -1.4 -2.7 -1.1 -0.8 0.3 -1.3 -0.2 -1.3 -1.4 0 -1.6 0.7 -2 3.5 -2 3.2 0 3.5 0.2 3.5 3 0 3.3 -1.1 3.8 -3 1.5z"/>
  <path d="M383.2 57.5 l0.4 -3.5 -5.1 -0.1 c-2.7 0 -7.8 -0.1 -11.3 -0.2 -3.4 -0.1 -6.2 0.1 -6.2 0.6 0 0.4 1.1 0.7 2.5 0.7 2 0 2.5 0.5 2.5 2.4 0 2.2 -0.3 2.4 -2.8 1.7 -5.8 -1.7 -9.2 -4.1 -9.2 -6.5 0 -2.7 2.7 -9.6 3.8 -9.6 0.4 0 2.3 -1.6 4.2 -3.5 1.9 -2 4.6 -4.7 6 -6 1.4 -1.4 3.3 -2.5 4.2 -2.5 1.6 0 1.8 1.1 1.8 10.5 l0 10.5 5 0 c2.8 0 5 -0.2 5 -0.4 0 -0.2 -0.5 -2.8 -1 -5.7 -0.6 -3 -1.2 -6.7 -1.5 -8.4 -0.2 -1.6 -0.9 -5.2 -1.5 -7.9 -1.2 -5.4 -0.6 -6.7 4.1 -9.2 3.8 -1.9 4 -1.9 3.9 1.8 0 1.8 0.3 9.8 0.6 17.8 0.5 13.4 0.4 14.7 -1.5 17.8 -2.7 4.3 -4.4 4.2 -3.9 -0.3z m-15.6 -9.1 c-0.3 -0.9 -0.6 -2 -0.6 -2.5 0 -0.5 -1.5 -0.2 -3.2 0.7 -3 1.6 -3.1 1.8 -1.3 2.5 3.5 1.4 5.8 1.1 5.1 -0.7z m20.1 -3.1 c-0.3 -1 -0.5 -0.2 -0.5 1.7 0 1.9 0.2 2.7 0.5 1.8 0.2 -1 0.2 -2.6 0 -3.5z m-17.8 -5 c0 -2.5 -0.1 -2.5 -0.8 -0.8 -0.5 1.1 -0.7 2.3 -0.4 2.8 0.8 1.4 1.3 0.7 1.2 -2z"/>
  <path d="M285.4 48.3 c-0.3 -1.6 -0.7 -3.4 -1 -4 -0.6 -2.2 1.5 -1.4 3.2 1.2 0.9 1.4 1.9 2.3 2.2 2.1 0.3 -0.3 -0.1 -1.2 -0.7 -2 -0.9 -1 -0.9 -1.6 -0.1 -2.1 1.3 -0.8 1.2 -0.9 2.8 2.9 1.5 3.3 0.5 4.6 -3.5 4.6 -1.7 0 -2.4 -0.7 -2.9 -2.7z"/>
  <path d="M375.4 49.6 c-0.7 -1.8 0.4 -3.9 1.6 -3.1 0.5 0.3 1.2 0 1.6 -0.6 0.3 -0.6 0 -1.5 -0.7 -2 -0.8 -0.5 -0.9 -0.9 -0.4 -0.9 2.1 0 3.4 1.6 3.7 4.5 0.3 2.6 0 3 -2.5 3.3 -1.7 0.2 -2.9 -0.2 -3.3 -1.2z"/>
  <path d="M407.7 50.3 c-0.4 -0.3 -0.7 -2.2 -0.7 -4.2 l0 -3.6 6 0 c3.3 0 6 0.1 6 0.2 0 0.1 -1.8 2 -4 4.3 -3.7 3.8 -5.9 4.8 -7.3 3.3z"/>
  <path d="M291.3 31.3 c-3 -2.1 -2.9 -3.4 0.6 -6.6 l2.9 -2.6 2.6 2.6 c3 3 3.1 3.2 1 6.1 -1.8 2.6 -4 2.7 -7.1 0.5z"/>
  <path d="M401 29.5 c0 -1.9 -0.4 -3.5 -1 -3.5 -0.5 0 -1 0.9 -1 2 0 3.2 -2.8 2.3 -3.5 -1.1 -0.8 -3.3 0.6 -5 5.8 -6.8 3.1 -1.1 2.9 -1.4 3.1 7.2 0.1 4.8 -0.1 5.7 -1.6 5.7 -1.4 0 -1.8 -0.8 -1.8 -3.5z"/>
  <path d="M358.2 28 c-2.7 -2.6 -2.8 -4.2 -0.1 -6.6 1.7 -1.5 2.3 -1.6 4 -0.6 1.6 1 2.4 1 4.2 -0.3 2.7 -1.9 3.7 -1.9 3.7 0 0 0.8 0.7 1.5 1.5 1.5 1.7 0 2 2.3 0.5 5.1 -1.3 2.3 -4.3 2.5 -6 0.4 -1.2 -1.4 -1.5 -1.3 -3.2 0.5 -2.3 2.4 -2 2.4 -4.6 0z"/>
 </g>
 <g fill="#57a4bc">
  <path d="M263 77.9 c-1.3 -0.5 -2.8 -1.5 -3.2 -2.2 -0.9 -1.5 -11.7 -1.5 -12.6 0 -0.4 0.6 -3.4 1.5 -6.8 1.8 -4.9 0.6 -6.4 0.4 -7.6 -0.9 -0.9 -0.9 -2.1 -1.6 -2.7 -1.6 -0.6 0 -1.1 -0.4 -1.1 -1 0 -0.5 -0.7 -1 -1.5 -1 -0.8 0 -1.5 -0.8 -1.5 -1.9 0 -1 -0.3 -4.5 -0.6 -7.8 l-0.7 -6 7.9 0.4 c4.4 0.2 8.9 0.3 10.1 0.3 2.5 0 4 3 2.1 4.2 -1.5 0.9 -3.6 1.1 -9 0.8 -3.3 -0.1 -3.9 0.2 -4.8 2.6 -0.9 2.2 -0.7 3.1 0.7 4.6 5 5.6 12 6.2 18.1 1.8 3.8 -2.8 7.2 -7.4 7.2 -10 0 -0.6 1.2 -2.2 2.8 -3.5 l2.7 -2.4 2.3 2.2 c1.3 1.2 3.5 2.7 5 3.3 2.4 1.1 2.1 1.2 -4 1.3 -5.7 0.1 -6.8 0.4 -7.3 2.1 -0.3 1.1 -0.4 2.8 -0.1 3.8 0.9 2.6 7.7 6.2 11.8 6.2 4.4 0 12.7 -5.4 14.1 -9.1 0.9 -2.3 1.8 -2.8 6.1 -3.3 2.8 -0.3 6.3 -1.5 7.8 -2.6 1.6 -1.2 3.3 -1.8 3.9 -1.4 0.6 0.3 1.8 -0.1 2.9 -1.1 1.6 -1.4 2.9 -1.5 12.6 -0.4 8.5 1 13.3 0.9 23 0 12.3 -1.3 12.4 -1.3 16.1 1.1 3.6 2.1 7 2.8 21.9 4.4 4.4 0.5 5.4 0.2 8.2 -2.1 1.8 -1.5 3.2 -3.3 3.2 -4.1 0 -0.9 0.5 -1.2 1 -0.9 0.6 0.4 0.8 1.1 0.5 1.6 -0.4 0.5 0.5 1 1.9 1 3.6 0.2 3.7 0.2 7.6 2.7 3.5 2.2 5.2 2.4 22.5 2.3 7.3 -0.1 17 0 20.8 0.2 3.5 0.2 3.7 0.4 3.1 2.9 -1.3 6 9.3 11.1 15.9 7.7 4.3 -2.2 8.8 -7.4 9.8 -11.4 1.5 -5.7 2.5 -6.6 5.5 -5.3 2.3 1.1 2.4 1.5 2.4 11 l0 9.8 -5.3 0 c-3 0 -5.6 -0.3 -5.9 -0.6 -0.4 -0.3 -6.9 -0.5 -14.5 -0.5 -7.6 0.1 -50.5 0.3 -95.3 0.5 -44.8 0.1 -84.4 0.6 -88 0.9 -3.7 0.4 -7.6 0.2 -9 -0.4z"/>
  <path d="M235.7 71.4 c-5.2 -3.5 -4.7 -6 1.1 -5.6 6.7 0.4 14 -4.5 12.9 -8.8 -0.3 -1.1 -0.1 -2 0.4 -2 0.5 0 0.9 1.1 0.9 2.5 0 1.6 0.6 2.5 1.5 2.5 0.8 0 1.5 -0.7 1.5 -1.5 0 -0.8 0.4 -1.5 0.9 -1.5 1.1 0 0.3 4.7 -1.5 8.7 -1.5 3.4 -8.6 8.3 -12 8.3 -1.1 0 -3.6 -1.2 -5.7 -2.6z m8.3 -2.4 c0 -0.5 -0.3 -1 -0.7 -1 -0.5 0 -1.8 -0.3 -3 -0.6 -1.3 -0.4 -2.3 -0.2 -2.3 0.4 0 1 1.9 1.8 4.8 2.1 0.6 0 1.2 -0.3 1.2 -0.9z"/>
  <path d="M264 71.6 c-4.5 -2.4 -5.7 -4.1 -4.2 -6.2 0.5 -0.8 2.3 -0.9 5.6 -0.4 3.5 0.5 5.7 0.3 7.5 -0.6 2.2 -1.2 2.6 -1.2 2.9 0 0.6 2.6 5.2 -0.5 5.2 -3.5 0 -2.5 0.3 -2.7 7 -3.3 5.1 -0.5 7 -1.1 7 -2.2 0 -0.8 1 -1.4 2.5 -1.4 6.8 0 -0.9 6.2 -9.4 7.6 -3.6 0.6 -4.4 1.2 -5.6 4.1 -0.8 1.9 -2.4 3.7 -3.5 4 -1.1 0.3 -2 0.9 -2 1.3 0 0.8 -5.4 3 -7.4 3 -0.6 0 -3.1 -1.1 -5.6 -2.4z"/>
  <path d="M452.8 71.6 c-4.9 -2.9 -5.1 -3.1 -4.4 -5.4 0.6 -1.8 1.1 -1.9 4.6 -1 4.8 1.2 9.1 -0.2 12 -4 2.5 -3.1 2.5 -4.3 0.2 -6.8 -3.2 -3.4 -3.5 -5.4 -0.7 -5.4 2.1 0 2.4 0.6 3.1 5.6 0.6 4.8 0.4 6 -1.5 8.5 l-2.1 2.8 2.2 -0.8 c1.6 -0.5 2.9 -2.4 4 -5.7 1.2 -3.6 1.7 -4.2 1.7 -2.4 0.1 1.4 -0.6 4.6 -1.6 7.1 -1.3 3.9 -2.5 5.1 -6.5 7.3 -5.7 3.1 -6.2 3.1 -11 0.2z m9.5 -3.6 c0.5 -1.8 0.1 -1.9 -4.2 -1.3 -5.3 0.7 -5.5 0.8 -4.6 2.2 0.3 0.6 2.3 1.1 4.4 1.1 3 0 4 -0.4 4.4 -2z"/>
  <path d="M452.2 63.2 c-4 -0.3 -4.2 -0.4 -3.6 -3 1.2 -4.8 2.8 -5.7 3.7 -2.3 0.3 1.1 1.3 2 2.3 1.9 1.1 0 2.7 0.3 3.7 0.7 1.3 0.6 1.6 0.4 1.1 -0.9 -0.5 -1.2 -0.2 -1.5 1 -1 0.9 0.3 2.4 0 3.3 -0.7 1.5 -1.3 1.5 -1.2 0.5 0.7 -2.2 4.1 -4.8 5.1 -12 4.6z"/>
  <path d="M375.5 61.3 c-1.1 -0.2 -2.6 -1.2 -3.3 -2.1 -1 -1.4 -1.6 -1.4 -3.3 -0.4 -1.6 1 -2.7 1 -5.7 0 -8.3 -2.8 -11.1 -6.7 -7.8 -11 2.1 -2.8 2.8 -2.1 2.4 2.2 -0.3 3.8 -0.2 4 2.4 4 1.6 0 2.8 0.5 2.8 1 0 0.6 0.7 1 1.5 1 0.8 0 1.5 -0.4 1.5 -1 0 -0.5 0.9 -1 2 -1 1.6 0 2 -0.7 2 -3.5 0 -4.1 2.4 -4.9 3.4 -1 0.6 2.2 1.1 2.5 5.6 2.5 4.3 0 5 0.3 5 2 0 1.7 -0.7 2 -4.2 2 -3.1 0 -3.9 0.3 -3.1 1.1 1.8 1.8 8.6 -0.2 9.8 -2.9 0.5 -1.2 1.3 -2.2 1.8 -2.2 0.7 0 -1.9 7 -3.1 8.2 -1 1 -7.4 1.7 -9.7 1.1z"/>
  <path d="M418.5 61.1 c-0.4 -0.8 -2.5 -1 -6.4 -0.5 -6.2 0.7 -11.3 -1 -12.4 -4.1 -0.8 -2 -0.4 -1.9 4 1.1 2.6 1.7 4.6 2.4 6.3 2 6.9 -1.5 23.3 -2.7 23.9 -1.8 0.4 0.6 3 1.4 5.9 1.8 l5.2 0.7 0.6 -3.2 c1 -4.7 2.8 -5.3 2.1 -0.6 -0.9 5.7 -1.7 6 -9.3 4.1 -5.1 -1.2 -7 -1.3 -7.5 -0.4 -1 1.6 -11.4 2.4 -12.4 0.9z"/>
  <path d="M271 59.9 c-3.3 -1.4 -6 -3.9 -6 -5.7 0 -1.2 0.7 -0.9 2.8 1 1.5 1.4 3.7 2.9 5 3.3 1.2 0.3 2.2 1.1 2.2 1.6 0 1.1 -0.8 1.1 -4 -0.2z"/>
  <path d="M282 52.5 c0 -1.9 0.5 -3.5 1 -3.5 0.6 0 1 0.7 1 1.5 0 1.5 1.1 1.8 6.3 1.7 2 0 2.7 0.4 2.7 1.9 0 1.6 -0.7 1.9 -5.5 1.9 l-5.5 0 0 -3.5z"/>
  <path d="M404.1 52.3 c0.1 -2.1 0.3 -3 0.6 -2 0.3 1.3 1.5 1.7 5.4 1.7 4.2 0 4.9 0.3 4.9 2 0 1.8 -0.7 2 -5.5 2 l-5.5 0 0.1 -3.7z"/>
  <path d="M444 42.5 c0 -4 2.4 -4.9 3.4 -1.2 1 3.7 0.7 4.7 -1.4 4.7 -1.6 0 -2 -0.7 -2 -3.5z"/>
  <path d="M248 40.9 c0 -2.4 0.4 -3 1.8 -2.7 1 0.2 1.8 1.4 2 3.1 0.3 2.2 -0.1 2.7 -1.7 2.7 -1.7 0 -2.1 -0.6 -2.1 -3.1z"/>
 </g>
 <g fill="#46a7b0">
  <path d="M225.6 88.3 c-0.7 -1.7 0.3 -20.3 1.1 -20.3 0.5 0 4.7 2.4 5.3 3.1 4.2 4.7 10.7 5 18.4 0.9 l5.7 -2.9 4.9 3 c5.7 3.5 10.8 4.6 14 2.9 1.9 -1 80.4 -1.3 150 -0.5 12.6 0.1 18.5 -0.8 21.2 -3.2 1 -0.9 1.8 -1.2 1.8 -0.6 0 0.5 1.8 1.8 4 2.8 4.6 2.1 11.1 1.6 14.1 -1.1 1.9 -1.7 2.1 -1.7 4.9 0.4 3.2 2.4 7 2.8 8.8 1 0.9 -0.9 1.2 0.2 1.2 5 l0 6.1 -4 1.1 c-2.7 0.7 -41.4 1.1 -122.5 1.1 -101.8 0 -118.5 0.3 -118.5 1.5 0 2.2 -9.6 1.9 -10.4 -0.3z"/>
  <path d="M234.8 70 c-2.5 -2.2 -2.9 -2.9 -1.5 -3 0.9 0 1.7 0.4 1.7 0.8 0 0.5 1.5 1.7 3.3 2.7 3.3 1.8 3.4 1.8 8.1 -1 5.6 -3.3 7.1 -2.7 2.3 0.9 -4.7 3.6 -9.7 3.5 -13.9 -0.4z"/>
  <path d="M262.7 70.4 c-5.3 -3.6 -3.9 -4.3 1.8 -0.9 3.7 2.1 5.5 2.6 8.3 2.1 2.7 -0.4 3.1 -0.3 1.7 0.4 -3.7 1.6 -8 1 -11.8 -1.6z"/>
  <path d="M452.3 71 c-3.2 -1.9 -4.4 -4 -2.3 -4 0.6 0 1 0.4 1 0.8 0 0.5 1.6 1.6 3.5 2.5 3.5 1.7 7.5 1.1 9 -1.2 0.3 -0.6 1.6 -1.1 2.8 -1.1 1.8 0 1.6 0.4 -1.5 2.5 -4.4 3 -8.2 3.2 -12.5 0.5z"/>
 </g>
 <g fill="#39a9a9">
  <path d="M275.8 95 c-51.3 -0.6 -48.9 -0.2 -50.3 -6.7 -0.6 -3.2 0.8 -4.7 1.8 -2 0.3 0.7 0.6 0.5 0.6 -0.5 0.1 -1.2 0.9 -1.8 2.4 -1.8 1.3 0 2.8 -0.5 3.5 -1.2 0.9 -0.9 1.8 -0.9 3.9 0.1 1.9 0.9 11.5 1.2 36.2 1.1 18.5 -0.1 66 0 105.6 0.1 87.2 0.2 90 0.1 96.4 -1.6 l5.1 -1.3 0 4.7 c0 9.2 3.5 8.5 -49.7 9.2 -51.8 0.7 -85.9 0.7 -155.5 -0.1z"/>
 </g>
 <g fill="#3bb54c">
  <path d="M396 249.4 c0 -1.1 0.4 -3.5 0.9 -5.4 0.5 -1.9 1.2 -5.2 1.5 -7.2 1.1 -6.3 8.5 -14.9 17.3 -20.2 10.9 -6.5 17.7 -11.5 18.1 -13.3 0.2 -0.8 0 -1.3 -0.5 -1.1 -0.4 0.2 -2.6 1.2 -4.8 2.1 -2.2 1 -4.7 2.2 -5.5 2.7 -0.8 0.5 -4 2.3 -7 4 -16 8.8 -22.7 16.7 -26.4 31.2 -1.8 7.1 -2.6 4.2 -2.6 -9.3 l0 -10.9 5.7 -6.1 c3.8 -4 8 -7.2 12.3 -9.3 17.5 -8.7 28.3 -17.7 32.8 -27.6 1.4 -3 4.1 -7.7 6.1 -10.4 l3.5 -4.9 1.3 4.9 c1.8 6.9 1.6 21.9 -0.3 28.4 -2.9 9.7 -13.4 22.5 -26.9 32.8 -3.3 2.5 -8.1 6.5 -10.7 8.9 -2.6 2.4 -5.1 4.3 -5.5 4.3 -0.5 0 -2.7 1.9 -5.1 4.1 -3.3 3.2 -4.2 3.7 -4.2 2.3z"/>
  <path d="M362.3 245.2 c-2.3 -2 -6.8 -5.9 -9.9 -8.7 -3.1 -2.7 -6.4 -5.4 -7.4 -6 -1 -0.5 -5.5 -4.1 -10 -8 -9 -7.7 -18.3 -20.5 -20.7 -28.3 -2.5 -8.6 -1 -32.9 2 -31.9 0.7 0.2 3.3 4.3 5.8 9.1 5.3 10 14 21.1 18.4 23.3 1.7 0.9 7.3 4.1 12.5 7.2 5.2 3.1 10.9 6.4 12.5 7.3 1.7 0.9 4.8 4.5 7 7.9 3.8 6 4 6.8 4 13.9 0 4.1 -0.4 8.9 -0.9 10.5 -0.8 2.9 -0.9 2.8 -2.2 -2.7 -1.2 -5.2 -5.6 -13.8 -9.3 -18.2 -3.6 -4.3 -31.5 -20.6 -32.8 -19.2 -1.2 1.2 0.9 3.8 5.4 6.5 2.6 1.6 6.8 4.4 9.3 6.1 2.5 1.7 5.9 3.9 7.6 4.9 3.9 2.4 11 14.2 12.4 20.6 0.5 2.8 1.2 6 1.5 7.3 0.7 3.1 -0.3 2.8 -5.2 -1.6z"/>
 </g>
 <g fill="#06693a">
  <path d="M376.1 205 c-13.4 -3.2 -21.4 -20.9 -15.3 -34 2.5 -5.5 4.5 -7.8 9.7 -11.3 3.5 -2.4 4.9 -2.7 12.1 -2.7 10.6 0 13.2 1 18.6 7.3 6.3 7.3 6.8 8.6 6.8 17.2 0 6.8 -0.3 8.1 -2.9 11.9 -7.3 10.6 -16.9 14.4 -29 11.6z"/>
  <path d="M235.1 70.5 c-4.3 -3.7 -3.2 -5.3 3.5 -5.1 5.2 0.1 5.6 -0.1 9.6 -4.3 4.2 -4.3 4.2 -4.3 3 -8.7 -2.4 -8.9 -0.6 -12.9 2.5 -5.6 2.1 4.9 2.1 13.8 0 17.9 -1.9 3.6 -7.6 8.3 -10 8.3 -1 0 -1.7 -0.8 -1.7 -2 0 -1.1 -0.4 -2 -1 -2 -0.5 0 -1 0.9 -1 2 0 2.7 -1.2 2.5 -4.9 -0.5z"/>
  <path d="M262.8 70.5 c-5.5 -3.7 -3.7 -6.7 3 -4.9 1.2 0.4 2.2 1.3 2.2 2 0 0.8 0.5 1.4 1 1.4 0.6 0 1 0.9 1 2 0 2.7 -2.7 2.6 -7.2 -0.5z"/>
  <path d="M272 70.4 c0 -1.5 0.6 -2.4 1.5 -2.4 0.8 0 1.5 -0.4 1.5 -1 0 -0.5 0.9 -1 2 -1 1.3 0 2 -0.7 2 -2 0 -1.4 0.7 -2 2.4 -2 3.4 0 2.4 3.2 -2.2 6.9 -4.9 4.1 -7.2 4.6 -7.2 1.5z"/>
  <path d="M458 71 c0 -1.1 -0.7 -2 -1.5 -2 -0.8 0 -1.5 0.7 -1.5 1.5 0 2 -1.3 1.9 -4 -0.3 -1.4 -1.2 -1.9 -2.3 -1.4 -3.5 0.5 -1.5 1.4 -1.7 4.5 -1.2 3 0.5 4.8 0.2 7.4 -1.4 l3.5 -2 0 2.9 c0 1.7 -0.5 3 -1.2 3 -0.9 0 -0.8 0.3 0.2 1 1.3 0.8 1.2 1.1 -0.5 2.4 -2.9 2.2 -5.5 2 -5.5 -0.4z"/>
  <path d="M419.8 61.4 c-2.6 -0.8 -2.2 -3.4 0.5 -3.4 1.2 0 4.6 -0.3 7.5 -0.6 5.4 -0.7 6.6 0.2 3.2 2.3 -2.2 1.5 -8.7 2.4 -11.2 1.7z"/>
  <path d="M440.8 61.3 c-3.3 -0.8 -2 -3.3 1.7 -3.3 2.8 0 3.5 0.4 3.5 2 0 2 -1.4 2.3 -5.2 1.3z"/>
  <path d="M271.8 60.3 c-3.3 -0.8 -2 -3.3 1.7 -3.3 2.8 0 3.5 0.4 3.5 2 0 2 -1.4 2.3 -5.2 1.3z"/>
  <path d="M288 59 c0 -1.6 0.7 -2 3.5 -2 4 0 4.9 2.4 1.3 3.4 -3.8 1 -4.8 0.7 -4.8 -1.4z"/>
  <path d="M372.1 58.8 c-1.6 -1.6 -2.5 -1.9 -2.8 -1 -0.8 2.1 -4.3 1.4 -4.3 -0.8 0 -1.6 0.7 -2 3.5 -2 1.9 0 3.5 -0.5 3.5 -1.1 0 -0.7 -0.9 -0.9 -2.2 -0.5 -1.3 0.3 -3.5 0.6 -5 0.6 -2.1 0 -2.8 0.5 -2.8 2 0 1.1 -0.3 2 -0.7 2 -1.8 0 -7.3 -4.1 -7.3 -5.4 0 -3.4 3.2 -8.4 7.3 -11.5 2.5 -1.8 4.7 -4.2 5 -5.1 0.3 -1 1.9 -2.6 3.6 -3.4 2.6 -1.4 3.1 -1.4 3.1 -0.2 0 3 -1.3 4.6 -3.6 4.6 -1.9 0 -2.4 0.5 -2.4 2.5 0 1.7 0.5 2.5 1.8 2.5 1.3 0 2.2 1.3 3.1 4.9 1 3.9 1.7 5 3.8 5.6 3.6 0.9 8.1 -0.3 8.6 -2.3 0.3 -0.9 0.5 0 0.6 2.1 0 2 0.6 3.7 1.1 3.7 1.5 0 1.2 1.6 -0.6 3.4 -2.2 2.3 -5.4 2.1 -5.4 -0.3 0 -1.1 0.6 -2.2 1.3 -2.4 0.6 -0.3 -1.3 -0.5 -4.3 -0.5 -3.3 0.1 -4.2 0.3 -2.2 0.5 2.4 0.3 3.2 0.9 3.2 2.4 0 2.6 -3 2.4 -5.9 -0.3z m-4.1 -10.4 c0 -1.7 -0.6 -2.8 -2 -3.1 -1.1 -0.3 -2 -0.9 -2 -1.4 0 -0.5 -0.4 -0.9 -1 -0.9 -0.5 0 -1 0.8 -1 1.8 0 1 -0.5 2.3 -1.1 2.9 -0.9 0.9 -0.3 1.4 2.2 2.1 4.9 1.4 4.9 1.4 4.9 -1.4z"/>
  <path d="M401.2 58.2 c-2.8 -2.8 -2.9 -6.2 -0.2 -6.2 2.1 0 3.5 3.3 2.8 6.7 -0.3 1.6 -0.5 1.6 -2.6 -0.5z"/>
  <path d="M437 54.9 c0 -1.9 0.4 -2.1 3.1 -1.5 2.7 0.5 3 0.4 2.4 -1.4 -0.4 -1.1 -0.2 -2 0.4 -2 0.6 0 1.1 1.6 1.1 3.5 0 3.3 -0.2 3.5 -3.5 3.5 -2.9 0 -3.5 -0.4 -3.5 -2.1z"/>
  <path d="M264.7 53.8 c-0.8 -3.1 0.2 -6.8 1.9 -6.8 0.8 0 1.4 -1 1.4 -2.5 0 -2.1 0.5 -2.5 3 -2.5 2.5 0 3 -0.4 3 -2.4 0 -1.9 0.4 -2.3 1.9 -1.9 1.1 0.3 2.7 1.4 3.7 2.4 1.6 1.8 1.6 1.9 -1.4 1.9 -2.6 0 -3.2 0.4 -3.2 2.1 0 1.5 -0.5 1.9 -1.5 1.5 -2.3 -0.8 -5.5 3.3 -5.5 7.1 0 3.8 -2.4 4.6 -3.3 1.1z"/>
  <path d="M271 54 c0 -2.1 1 -2.4 4.8 -1.4 3.6 1 2.7 3.4 -1.3 3.4 -2.8 0 -3.5 -0.4 -3.5 -2z"/>
  <path d="M281 52.5 c0 -3.9 2.4 -4.9 3.3 -1.4 0.5 2 1 2.1 5.6 1.5 4.7 -0.6 5.1 -0.5 5.1 1.4 0 1.8 -0.6 2 -7 2 l-7 0 0 -3.5z"/>
  <path d="M409 54.6 c0 -0.8 1.3 -1.7 2.9 -2.1 1.5 -0.3 3.4 -1.7 4.1 -3 1.4 -2.5 3 -3.3 3 -1.5 0 0.6 0.7 1 1.5 1 0.8 0 1.5 0.9 1.5 2 0 1.1 0.7 2 1.5 2 0.8 0 1.5 0.7 1.5 1.5 0 1.9 -6.6 2.1 -7.4 0.3 -0.5 -1 -0.7 -1 -1.2 0 -0.8 1.7 -7.4 1.6 -7.4 -0.2z"/>
  <path d="M445 52.5 c0 -3.7 2.4 -5 3.2 -1.7 0.6 2.7 -0.2 5.2 -1.8 5.2 -0.9 0 -1.4 -1.1 -1.4 -3.5z"/>
  <path d="M428.1 49.3 c1.8 -4.8 7.9 -8.7 7.9 -5 0 2.9 -1.3 5.7 -2.6 5.7 -0.8 0 -1.4 0.5 -1.4 1 0 0.6 -1.1 1 -2.5 1 -2.3 0 -2.4 -0.2 -1.4 -2.7z"/>
  <path d="M245.6 48.8 c-1 -3.8 -0.7 -4.8 1.4 -4.8 1.6 0 2 0.7 2 3.5 0 4 -2.4 4.9 -3.4 1.3z"/>
  <path d="M466.4 47 c-0.4 -2.6 -1.3 -4.1 -2.5 -4.5 -1.1 -0.4 -1.9 -1 -1.9 -1.4 0 -1.2 2.3 -3.1 3.7 -3.1 1.3 0 4 5.5 5 10.3 0.5 2.3 0.2 2.7 -1.6 2.7 -1.7 0 -2.2 -0.8 -2.7 -4z"/>
  <path d="M297 44.5 c0 -4 2.4 -4.9 3.4 -1.2 1 3.7 0.7 4.7 -1.4 4.7 -1.6 0 -2 -0.7 -2 -3.5z"/>
  <path d="M383.1 42.8 c-2.5 -12.8 -2.5 -12.8 -0.2 -12.8 1.7 0 2.1 0.6 2.1 2.9 0 1.6 0.7 3.6 1.5 4.5 2.4 2.3 3 7.2 1.2 9.1 -2.6 2.5 -3.5 1.8 -4.6 -3.7z"/>
  <path d="M444 43.5 c0 -4 2.4 -4.9 3.4 -1.2 1 3.7 0.7 4.7 -1.4 4.7 -1.6 0 -2 -0.7 -2 -3.5z"/>
  <path d="M397.6 40.8 c-1 -3.8 -0.7 -4.8 1.4 -4.8 1.6 0 2 0.7 2 3.5 0 4 -2.4 4.9 -3.4 1.3z"/>
  <path d="M294.5 38 c1 -1.1 2.4 -2 3.2 -2 0.7 0 1.3 0.9 1.3 2 0 1.6 -0.7 2 -3.2 2 -3 0 -3.1 0 -1.3 -2z"/>
  <path d="M295 29.7 c0 -2.7 0.4 -3.7 1.5 -3.7 2.6 0 2.9 3 0.6 5.3 l-2.1 2.1 0 -3.7z"/>
  <path d="M396.6 30.8 c-1.1 -4.3 -0.6 -7.3 1.4 -8.6 1.9 -1.2 2 -1 2 4.8 0 4.4 -0.4 6 -1.4 6 -0.7 0 -1.6 -1 -2 -2.2z"/>
  <path d="M357.7 27.2 c-2.5 -2.7 -2.1 -3.4 1.6 -3 2.4 0.2 3.2 0.8 3.2 2.3 0 2.6 -2.7 3 -4.8 0.7z"/>
 </g>
 <g fill="#000000">
  <path d="M235.8 70.9 c-1.6 -1.1 -2.8 -2.9 -2.8 -4 0 -1.6 0.5 -1.8 4.5 -1.2 3.7 0.5 5.1 0.2 8 -1.8 4.5 -3.1 5.3 -5.9 2.7 -10.1 -3 -5 -3.8 -10.3 -1.8 -13.3 2.6 -4 4 -3 6.4 4.3 4 12.3 2.7 20.2 -4.1 25.2 -4.8 3.5 -9 3.8 -12.9 0.9z"/>
  <path d="M263.8 70.8 c-2.2 -1.3 -3.8 -3 -3.8 -4 0 -1.6 0.6 -1.8 4.8 -1.2 3.9 0.5 5.7 0.2 9.3 -1.7 l4.4 -2.2 -4.8 -1.3 c-7.1 -1.8 -8.7 -3.7 -8.7 -10.1 0 -4.9 0.4 -5.8 3.9 -9.5 3.7 -4.1 3.9 -4.1 7 -2.8 4.2 1.7 8.1 7.5 8.1 11.9 l0 3.4 5.6 -0.6 c3.1 -0.3 5.9 -0.8 6.2 -1.2 0.3 -0.3 -0.4 -2.6 -1.6 -5.1 -1.7 -3.4 -2 -5 -1.2 -6.4 1 -1.9 4.8 -4.5 5.6 -3.8 0.2 0.2 0.9 3.6 1.6 7.6 1.9 11.3 -0.9 15.7 -10.9 16.9 -4.5 0.5 -5.3 0.9 -6.4 3.6 -1.5 3.5 -9.2 8.7 -12.8 8.7 -1.5 0 -4.3 -1 -6.3 -2.2z m14.7 -18.8 c0.7 -1.1 -4.7 -7 -6.4 -7 -1.4 0 -3.3 3.8 -2.5 5.1 1.4 2.3 7.8 3.7 8.9 1.9z"/>
  <path d="M452.3 70.9 c-1.9 -1.2 -3.3 -2.9 -3.3 -4 0 -1.7 0.5 -1.9 5.3 -1.3 4.7 0.6 5.6 0.4 8.4 -2 4.5 -3.8 4.8 -5.8 1.8 -10.4 -3.7 -5.6 -4.3 -10.4 -1.6 -13.1 1.1 -1.1 2.5 -2.1 3 -2.1 0.5 0 1.9 2.6 3.2 5.8 4.8 12.7 3.2 22.2 -4.5 26.7 -5.2 3 -8.1 3.1 -12.3 0.4z"/>
  <path d="M419.5 60.9 c-1.6 -0.5 -5.1 -0.6 -7.7 -0.3 -5.8 0.8 -10.1 -0.8 -11.7 -4.3 -0.6 -1.4 -1.8 -9 -2.6 -17.1 -1.6 -15.7 -1.5 -16.1 3.5 -18.7 l2.7 -1.4 0.6 9.7 c0.4 5.3 0.7 12.7 0.7 16.4 0 6.4 0.1 6.8 2.5 7.4 4 1 7.2 -0.3 9.4 -4.1 1.3 -2.2 2.8 -3.5 4.1 -3.5 2.2 0 2.5 1.5 1 5.4 -0.9 2.4 -0.7 2.6 1.9 2.6 2.5 0 3.1 -0.7 4.9 -5 1.7 -4.1 2.5 -5 4.6 -5 2.3 0 2.4 0.3 2.3 4.7 -0.2 4.5 -0.1 4.7 3.2 5.5 1.8 0.5 3.5 0.7 3.8 0.5 0.2 -0.3 -0.5 -2.4 -1.7 -4.7 -1.2 -2.4 -1.8 -4.9 -1.5 -6.1 0.9 -2.7 5.3 -5.5 6.7 -4.1 1.5 1.5 2.2 17.1 0.9 20.5 -1 2.6 -1.3 2.7 -5.3 2.1 -2.4 -0.4 -5.4 -1.1 -6.6 -1.6 -1.6 -0.5 -3.9 -0.3 -6.8 0.7 -5 1.7 -4.8 1.7 -8.9 0.4z"/>
  <path d="M372.6 58.9 c-2 -1.6 -3 -1.9 -3.9 -1 -0.6 0.6 -1.9 1.1 -3 1.1 -2.3 0 -10.4 -3.6 -11.2 -5.1 -1.4 -2.2 2.5 -9.4 7 -12.8 2.5 -1.8 4.5 -3.9 4.5 -4.6 0 -1.3 4.2 -4.5 6 -4.5 0.6 0 1 3.7 1 9.9 0 10.6 0.3 11.1 5.5 11.1 6.2 0 6.6 -1.5 3.5 -16.7 -1.1 -5.4 -2 -10.5 -2 -11.3 0 -1.2 3 -3.7 7.1 -5.8 0.3 -0.1 0.9 7.3 1.2 16.4 0.6 18 -0.1 22.1 -4.1 24.3 -3.3 1.8 -8.7 1.3 -11.6 -1z m-4.5 -9.1 c-0.1 -0.5 -0.1 -1.7 -0.1 -2.8 0 -2.6 -3 -2.6 -6.1 -0.1 -1.9 1.6 -2.1 2.1 -0.9 2.4 0.8 0.3 2.2 0.8 3 1.1 2 0.6 4.1 0.3 4.1 -0.6z"/>
  <path d="M292.3 31.3 c-2.9 -2 -2.9 -3.4 0 -6.1 2.9 -2.8 3.1 -2.7 5.2 0.4 1.5 2.3 1.5 2.7 0 5 -1.8 2.8 -2.2 2.8 -5.2 0.7z"/>
  <path d="M358 27 l-2.5 -1.9 2.4 -2.5 c2.3 -2.4 2.6 -2.5 4.3 -0.9 1.7 1.5 2 1.5 4.3 -0.7 2.4 -2.3 2.5 -2.3 4.5 -0.5 2.5 2.3 2.5 3.7 -0.1 6.1 -1.7 1.5 -2.3 1.6 -4.1 0.5 -1.6 -1 -2.3 -1 -3.7 0.3 -2.2 2 -2.1 2 -5.1 -0.4z"/>
 </g>
</svg>